Coordinates
version=1
nRows=16
nColumns=33
inDegrees=yes

Units are S.I. units (second, meters, Newtons, ...)
Angles are in degrees.

endheader
time	ground_thorax_rot_x	ground_thorax_rot_y	ground_thorax_rot_z	ground_thorax_tx	ground_thorax_ty	ground_thorax_tz	clav_prot_r	clav_elev_r	scapula_abduction_r	scapula_elevation_r	scapula_upward_rot_r	scapula_winging_r	shoulder_elv_r	plane_of_elev_r	axial_rot_r	elbow_flexion_r	pro_sup_r	wrist_flex_r	wrist_dev_r	clav_prot_l	clav_elev_l	scapula_abduction_l	scapula_elevation_l	scapula_upward_rot_l	scapula_winging_l	shoulder_elv_l	plane_of_elev_l	axial_rot_l	elbow_flexion_l	pro_sup_l	wrist_flex_l	wrist_dev_l
     10.26000000	     34.95121036	     20.61203138	     23.58019775	   -243.53320771	    833.24283295	      8.14748967	     13.30349784	     45.00000000	     45.00000000	     45.00000000	     45.00000000	  -2544.74906873	  -1600.96586150	    -90.00000000	   -101.15094325	    359.31158493	   -122.65954234	     22.04795960	     14.96418039	     10.59748231	    -45.00000000	    -39.37267225	     45.00000000	    -45.00000000	    822.32997908	  -2802.08749266	     20.77264641	    -57.72215096	   -348.96107038	     15.07025150	      3.10324364	    -19.47958421
     10.27000000	     35.05809188	     20.35463120	     23.29903652	   -244.79165809	    833.23486525	      8.31572813	     13.34186491	     45.00000000	     45.00000000	     45.00000000	     45.00000000	  -2544.79004375	  -1600.86190742	    -90.00000000	   -101.24355569	    359.42297762	   -123.09633379	     22.00817040	     14.90123356	     10.50336432	    -45.00000000	    -39.28166308	     45.00000000	    -45.00000000	    822.36303965	  -2802.05598379	     20.73747094	    -57.78066008	   -348.92348992	     15.91671023	      2.95227363	    -19.41734555
     10.28000000	     35.17653987	     20.08748598	     23.01536759	   -246.02649464	    833.19373117	      8.48590072	     13.38247171	     45.00000000	     45.00000000	     45.00000000	     45.00000000	  -2544.82464711	  -1600.78081784	    -90.00000000	   -101.31353205	    359.51147515	   -123.53559738	     21.96002342	     14.82769642	     10.41506090	    -45.00000000	    -39.18673836	     45.00000000	    -45.00000000	    822.38936433	  -2802.04247225	     20.70448530	    -57.83483660	   -348.88704373	     16.75253900	      2.80753339	    -19.35293429
     10.29000000	     35.29898684	     19.81709713	     22.73917264	   -247.23546001	    833.12594689	      8.65365919	     13.42453104	     45.00000000	     45.00000000	     45.00000000	     45.00000000	  -2544.86140211	  -1600.71902562	    -90.00000000	   -101.36442246	    359.58994831	   -123.96362884	     21.90589937	     14.74934506	     10.32502528	    -45.00000000	    -39.08299769	     45.00000000	    -45.00000000	    822.40895577	  -2802.04111165	     20.67249024	    -57.87759340	   -348.86013378	     17.57594563	      2.67043718	    -19.28269357
     10.30000000	     35.41966480	     19.54860942	     22.47138534	   -248.41606788	    833.03890824	      8.81341376	     13.46725323	     45.00000000	     45.00000000	     45.00000000	     45.00000000	  -2544.90208301	  -1600.67598304	    -90.00000000	   -101.39677035	    359.65448320	   -124.36814353	     21.84922818	     14.66883859	     10.23625139	    -45.00000000	    -38.98320837	     45.00000000	    -45.00000000	    822.42501078	  -2802.04738414	     20.63710544	    -57.92380529	   -348.83503975	     18.38653363	      2.54361962	    -19.21146854
     10.31000000	     35.54355440	     19.27961809	     22.21100630	   -249.56754840	    832.93950701	      8.95927099	     13.50959614	     45.00000000	     45.00000000	     45.00000000	     45.00000000	  -2544.93950205	  -1600.64920056	    -90.00000000	   -101.41303548	    359.71269588	   -124.73820211	     21.78655240	     14.58782774	     10.15002681	    -45.00000000	    -38.87356340	     45.00000000	    -45.00000000	    822.43618906	  -2802.06628846	     20.60475048	    -57.95910026	   -348.81738018	     19.18240035	      2.42171083	    -19.13594154
     10.32000000	     35.68783028	     19.00491842	     21.96367402	   -250.68939851	    832.83397869	      9.08538931	     13.54997098	     45.00000000	     45.00000000	     45.00000000	     45.00000000	  -2544.91863168	  -1600.65682655	    -90.00000000	   -101.39445324	    359.77816680	   -125.07659246	     21.69398954	     14.51082686	     10.11212693	    -45.00000000	    -38.70383329	     45.00000000	    -45.00000000	    822.45928115	  -2802.12156596	     20.61360640	    -57.93535813	   -348.83118516	     19.99776976	      2.28127920	    -19.03980850
     10.33000000	     35.77669404	     18.75075377	     21.75325826	   -251.78849208	    832.72660867	      9.18753571	     13.58978330	     45.00000000	     45.00000000	     45.00000000	     45.00000000	  -2544.98221004	  -1600.63141772	    -90.00000000	   -101.40880660	    359.80394875	   -125.37888332	     21.64415700	     14.43729667	     10.04527043	    -45.00000000	    -38.60935464	     45.00000000	    -45.00000000	    822.50765862	  -2802.09802857	     20.58404517	    -58.02317526	   -348.79674529	     20.82430175	      2.17792871	    -18.97431798
     10.34000000	     35.89426635	     18.49938340	     21.48327257	   -252.86439305	    832.62105925	      9.26165573	     13.62797915	     45.00000000	     45.00000000	     45.00000000	     45.00000000	  -2545.04383334	  -1600.59682367	    -90.00000000	   -101.43290900	    359.86469752	   -125.62270982	     21.59211985	     14.36431468	      9.92921755	    -45.00000000	    -38.52166959	     45.00000000	    -45.00000000	    822.48547828	  -2802.12274122	     20.54215070	    -58.08018542	   -348.75480225	     21.59681967	      2.08332109	    -18.91177962
     10.35000000	     36.01280142	     18.25050073	     21.26000093	   -253.92192935	    832.51899007	      9.30562275	     13.66461102	     45.00000000	     45.00000000	     45.00000000	     45.00000000	  -2545.07316938	  -1600.57727323	    -90.00000000	   -101.44203980	    359.92395415	   -125.82649954	     21.52120082	     14.29583748	      9.86805465	    -45.00000000	    -38.38426453	     45.00000000	    -45.00000000	    822.49974201	  -2802.16529331	     20.53259947	    -58.09137261	   -348.73819064	     22.34837088	      1.97775496	    -18.83837327
     10.36000000	     36.11036420	     18.01200530	     21.05320958	   -254.96553653	    832.42076770	      9.31831893	     13.69900876	     45.00000000	     45.00000000	     45.00000000	     45.00000000	  -2545.13225608	  -1600.54448594	    -90.00000000	   -101.46434157	    359.98117502	   -126.00213024	     21.46149947	     14.23333404	      9.80821428	    -45.00000000	    -38.27680432	     45.00000000	    -45.00000000	    822.52669929	  -2802.17735651	     20.51136184	    -58.15845505	   -348.69913226	     23.10083686	      1.88720474	    -18.78134189
     10.37000000	     36.21887453	     17.75790403	     20.81221975	   -255.99669434	    832.32581112	      9.29947287	     13.73241135	     45.00000000	     45.00000000	     45.00000000	     45.00000000	  -2545.19297596	  -1600.49694199	    -90.00000000	   -101.50187322	    360.04818095	   -126.14964245	     21.40479517	     14.17399708	      9.70818070	    -45.00000000	    -38.18689013	     45.00000000	    -45.00000000	    822.51938117	  -2802.18677386	     20.48061054	    -58.23429218	   -348.66458083	     23.81730179	      1.80859411	    -18.73295862
     10.38000000	     36.35281020	     17.51904444	     20.56589846	   -257.01412513	    832.23273141	      9.24970197	     13.76516865	     45.00000000	     45.00000000	     45.00000000	     45.00000000	  -2545.21224516	  -1600.45733653	    -90.00000000	   -101.53211424	    360.13350067	   -126.27284248	     21.33228828	     14.12001367	      9.60687817	    -45.00000000	    -38.11669871	     45.00000000	    -45.00000000	    822.48739743	  -2802.24647671	     20.43542235	    -58.30096904	   -348.65942119	     24.49253765	      1.73899981	    -18.68470182
     10.39000000	     36.44161920	     17.24665716	     20.39051546	   -258.02179498	    832.13872741	      9.17011291	     13.79627961	     45.00000000	     45.00000000	     45.00000000	     45.00000000	  -2545.28196640	  -1600.41318863	    -90.00000000	   -101.56689639	    360.20436221	   -126.39003551	     21.25545737	     14.06855735	      9.56012993	    -45.00000000	    -37.96145305	     45.00000000	    -45.00000000	    822.53070539	  -2802.25876532	     20.42417979	    -58.30653012	   -348.63111458	     25.16407498	      1.64361839	    -18.62856992
     10.40000000	     36.53542460	     17.02445159	     20.19882572	   -259.01358801	    832.04128466	      9.06307246	     13.83035173	     45.00000000	     45.00000000	     45.00000000	     45.00000000	  -2545.35782375	  -1600.36582646	    -90.00000000	   -101.60489642	    360.28353563	   -126.50217144	     21.18700311	     14.02789540	      9.48485353	    -45.00000000	    -37.86729539	     45.00000000	    -45.00000000	    822.55225293	  -2802.26317684	     20.39593457	    -58.38293948	   -348.58575698	     25.85809327	      1.57000565	    -18.59314084
     10.41000000	     36.65303204	     16.80942877	     20.03178580	   -259.99011127	    831.93664586	      8.93150179	     13.85919308	     45.00000000	     45.00000000	     45.00000000	     45.00000000	  -2545.41208276	  -1600.33047855	    -90.00000000	   -101.63090217	    360.35805912	   -126.61232116	     21.10281148	     13.98428771	      9.42935925	    -45.00000000	    -37.73675091	     45.00000000	    -45.00000000	    822.58134795	  -2802.28739562	     20.39736772	    -58.38191501	   -348.55295788	     26.55753243	      1.46175467	    -18.53157189
